<svg width="82" height="40" viewBox="0 0 82 43" fill="none" xmlns="http://www.w3.org/2000/svg">
    <rect y="1" width="82" height="42" rx="6" fill="#EFEFEF"/>
    <path d="M22 25.9688C21.7812 25.9688 21.5677 26.0052 21.3594 26.0781C21.151 26.151 20.9427 26.2344 20.7344 26.3281C20.526 26.4219 20.3125 26.5052 20.0938 26.5781C19.8854 26.651 19.6615 26.6875 19.4219 26.6875C18.9635 26.6875 18.5521 26.6146 18.1875 26.4688C17.8229 26.3125 17.5104 26.099 17.25 25.8281C17 25.5573 16.8021 25.2396 16.6562 24.875C16.5208 24.5 16.4531 24.0938 16.4531 23.6562C16.4531 23.0833 16.5625 22.6042 16.7812 22.2188C17 21.8229 17.2865 21.5052 17.6406 21.2656C18.0052 21.026 18.4167 20.8594 18.875 20.7656C19.3333 20.6615 19.8021 20.6094 20.2812 20.6094C20.8125 20.6302 21.2917 20.8073 21.7188 21.1406C22.1458 21.4635 22.526 21.8854 22.8594 22.4062C23.2031 22.9271 23.5 23.5156 23.75 24.1719C24 24.8177 24.2031 25.4792 24.3594 26.1562C24.526 26.8333 24.6458 27.4896 24.7188 28.125C24.7917 28.7604 24.8229 29.3229 24.8125 29.8125C24.8021 30.3125 24.7552 30.7083 24.6719 31C24.599 31.2917 24.4844 31.4219 24.3281 31.3906C24.0469 31.349 23.8333 31.224 23.6875 31.0156C23.5521 30.8177 23.4427 30.5677 23.3594 30.2656C23.2865 29.9635 23.2396 29.6302 23.2188 29.2656C23.2083 28.9115 23.1979 28.5521 23.1875 28.1875C23.1771 27.8333 23.1562 27.4948 23.125 27.1719C23.1042 26.8385 23.0573 26.5677 22.9844 26.3594C22.9115 26.1406 22.7969 25.9896 22.6406 25.9062C22.4844 25.8229 22.2708 25.8438 22 25.9688ZM17.7812 23.8125C17.7812 23.9896 17.8229 24.1667 17.9062 24.3438C18 24.5208 18.1198 24.6823 18.2656 24.8281C18.4115 24.974 18.5729 25.0938 18.75 25.1875C18.9271 25.2812 19.1042 25.3281 19.2812 25.3281C19.4583 25.3281 19.6875 25.2917 19.9688 25.2188C20.25 25.1354 20.526 25.0208 20.7969 24.875C21.0677 24.7188 21.3021 24.5417 21.5 24.3438C21.6979 24.1354 21.7969 23.9062 21.7969 23.6562C21.7969 23.3021 21.776 22.9948 21.7344 22.7344C21.6927 22.474 21.6198 22.2604 21.5156 22.0938C21.4115 21.9271 21.2604 21.8073 21.0625 21.7344C20.8646 21.651 20.6042 21.6094 20.2812 21.6094C20.0208 21.6094 19.7448 21.6719 19.4531 21.7969C19.1615 21.9115 18.8906 22.0729 18.6406 22.2812C18.401 22.4896 18.1979 22.7292 18.0312 23C17.8646 23.2604 17.7812 23.5312 17.7812 23.8125ZM25.4388 21.968C25.4388 21.072 25.6041 20.24 25.9348 19.472C26.2654 18.6933 26.7241 18.016 27.3108 17.44C27.8974 16.864 28.5961 16.416 29.4068 16.096C30.2281 15.7653 31.1294 15.6 32.1108 15.6C33.0814 15.6 33.9774 15.7653 34.7988 16.096C35.6201 16.416 36.3241 16.864 36.9108 17.44C37.5081 18.016 37.9721 18.6933 38.3028 19.472C38.6334 20.24 38.7988 21.072 38.7988 21.968C38.7988 22.8 38.6601 23.5733 38.3828 24.288C38.1161 25.0027 37.7268 25.6373 37.2148 26.192L39.2628 28.336L36.3828 28.784L35.2788 27.648C34.8094 27.8613 34.3081 28.0267 33.7748 28.144C33.2521 28.272 32.6974 28.336 32.1108 28.336C31.1294 28.336 30.2281 28.176 29.4068 27.856C28.5961 27.5253 27.8974 27.072 27.3108 26.496C26.7241 25.92 26.2654 25.248 25.9348 24.48C25.6041 23.7013 25.4388 22.864 25.4388 21.968ZM28.7188 21.968C28.7188 22.448 28.8094 22.8907 28.9908 23.296C29.1721 23.7013 29.4174 24.0533 29.7268 24.352C30.0361 24.6507 30.3934 24.8853 30.7988 25.056C31.2148 25.216 31.6521 25.296 32.1108 25.296C32.3881 25.296 32.6654 25.264 32.9427 25.2L31.1508 23.312L34.1108 22.944L34.9428 23.824C35.3268 23.2907 35.5188 22.672 35.5188 21.968C35.5188 21.488 35.4281 21.0453 35.2468 20.64C35.0654 20.2347 34.8148 19.8827 34.4948 19.584C34.1854 19.2853 33.8228 19.056 33.4068 18.896C33.0014 18.7253 32.5694 18.64 32.1108 18.64C31.6521 18.64 31.2148 18.7253 30.7988 18.896C30.3934 19.056 30.0361 19.2853 29.7268 19.584C29.4174 19.8827 29.1721 20.2347 28.9908 20.64C28.8094 21.0453 28.7188 21.488 28.7188 21.968ZM40.0276 24.208C40.0276 23.6853 40.1396 23.1733 40.3636 22.672C40.5983 22.16 40.9236 21.6907 41.3396 21.264C41.7556 20.8373 42.2996 20.4907 42.9716 20.224C43.6543 19.9573 44.4063 19.824 45.2276 19.824C45.4836 19.824 45.681 19.8293 45.8196 19.84L45.9476 19.44C46.2676 19.376 46.577 19.344 46.8756 19.344C47.4623 19.344 48.033 19.52 48.5876 19.872C48.6516 20.384 48.6836 20.7733 48.6836 21.04C48.6836 21.8293 48.529 22.288 48.2196 22.416C47.921 22.5333 47.633 22.592 47.3556 22.592C46.8436 22.592 46.2143 22.4907 45.4676 22.288L45.5636 21.664C45.3503 21.6427 45.1796 21.632 45.0516 21.632C44.273 21.632 43.5956 21.8507 43.0196 22.288C42.4543 22.7147 42.1716 23.3333 42.1716 24.144C42.1716 24.8267 42.369 25.3333 42.7636 25.664C43.169 25.9947 43.649 26.16 44.2036 26.16C44.5343 26.16 44.9663 26.0907 45.4996 25.952L45.4516 25.376C45.985 25.024 46.6356 24.848 47.4036 24.848C47.617 24.848 47.8676 24.8747 48.1556 24.928C48.5503 25.4187 48.7476 25.984 48.7476 26.624C48.7476 26.8907 48.7103 27.312 48.6356 27.888C48.1876 28.2507 47.569 28.432 46.7796 28.432C46.5663 28.432 46.321 28.4213 46.0436 28.4L45.8676 28.144C45.5583 28.176 45.2596 28.192 44.9716 28.192C43.521 28.192 42.3316 27.8027 41.4036 27.024C40.4863 26.2347 40.0276 25.296 40.0276 24.208ZM57.6328 18.2109L54.6953 28.0234H52.8984L49.9453 17.3359H51.4766L53.8828 26.5547L56.7422 17.3359H58.5312L61.3906 26.5547L63.7891 17.3359H65.3281L62.3672 28.0234H60.5703L57.6328 18.2109Z" fill="black"/>
</svg>